<svg xmlns="http://www.w3.org/2000/svg" viewBox="0 0 270 48" width="270" height="48">
    <path fill="#dc2626" d="M4.5 10.8l-3.8 10c-.9 2.5-.9 5.2.2 7.6l4.4 9.8c1.1 2.4 3.1 4.3 5.5 5.2l10.1 3.9c2.5.9 5.2.9 7.6-.2l9.8-4.4c2.4-1.1 4.3-3.1 5.2-5.5l3.9-10.1c.9-2.5.9-5.2-.2-7.6l-4.4-9.8c-1.1-2.4-3.1-4.3-5.5-5.2l-10.1-3.8c-2.5-.9-5.2-.9-7.6.2l-9.8 4.3c-2.5 1.1-4.3 3.1-5.3 5.6z"/>
    <path fill="#991b1b" d="M5.543 15.394l27.063-9.85 9.85 27.063-27.063 9.85z"/>
    <path fill="#ffffff" d="M7.318 12.32l28.362-5 5 28.362-28.362 5z"/>
    <path fill="#2E2E2E" d="M74.1 30.7h8v3.9h-12.1v-20.7h4.1v16.8zm21.2-10.9h3.9v14.8h-3.9v-1.7c-1.1 1.3-2.7 2.2-4.9 2.2-4 0-7.3-3.4-7.3-7.8s3.3-7.8 7.3-7.8c2.2 0 3.8.8 4.9 2.2v-1.9zm0 7.4c0-2.5-1.8-4.2-4.2-4.2-2.4 0-4.1 1.7-4.1 4.2s1.8 4.2 4.1 4.2c2.5 0 4.2-1.7 4.2-4.2zm11.2-4.9v-2.5h-3.9v14.8h3.9v-7.1c0-3.1 2.5-4 4.5-3.8v-4.3c-1.8.1-3.7.9-4.5 2.9zm17.6-2.5h3.9v14.8h-3.9v-1.7c-1.1 1.3-2.7 2.2-4.9 2.2-4 0-7.3-3.4-7.3-7.8s3.3-7.8 7.3-7.8c2.2 0 3.8.8 4.9 2.2v-1.9zm0 7.4c0-2.5-1.8-4.2-4.2-4.2-2.4 0-4.1 1.7-4.1 4.2s1.8 4.2 4.1 4.2c2.4 0 4.2-1.7 4.2-4.2zm13.5 3l-3.6-10.4h-4.2l5.7 14.8h4.4l5.7-14.8h-4.2l-3.8 10.4zm23.9-3c0 .6-.1 1.1-.1 1.6h-11.4c.5 2 2.2 2.8 4.2 2.8 1.5 0 2.7-.6 3.3-1.5l3.1 1.8c-1.4 2-3.6 3.2-6.5 3.2-5 0-8.2-3.4-8.2-7.8s3.2-7.8 7.9-7.8c4.5-.1 7.7 3.3 7.7 7.7zm-3.9-1.4c-.5-2.1-2.1-3-3.7-3-2.1 0-3.5 1.1-3.9 3h7.6zm6.5-12.8v21.6h3.9v-21.6h-3.9zM218.4,19.8h4.3v1.4h-4.3v8.6c0,1.2,0.2,2,0.7,2.4c0.4,0.4,1.1,0.7,2,0.7c0.5,0,1.1-0.1,1.6-0.3v1.6 c-0.6,0.2-1.3,0.2-1.9,0.2c-1.3,0-2.3-0.4-3-1.1c-0.7-0.7-1.1-1.8-1.1-3.2v-8.9h-2.9v-1.4h2.9V16l1.8-0.7V19.8z M207.7,21 c0.7,0,1.5,0.1,2.1,0.4s1.4,0.7,2.2,1.3l0.7-1.4c-0.6-0.6-1.3-1.1-2.2-1.4c-0.9-0.3-1.8-0.5-2.8-0.5c-1.4,0-2.6,0.3-3.6,0.9 c-1,0.6-1.9,1.5-2.4,2.7c-0.6,1.1-0.8,2.5-0.8,4c0,1.5,0.3,2.8,0.8,3.9c0.6,1.1,1.4,2,2.4,2.6s2.2,0.9,3.6,0.9c1,0,1.9-0.2,2.8-0.5 c0.9-0.3,1.7-0.8,2.3-1.4l-0.7-1.4c-0.8,0.6-1.5,1-2.2,1.3c-0.7,0.3-1.4,0.4-2.1,0.4c-1.6,0-2.8-0.5-3.7-1.6c-0.9-1-1.4-2.5-1.4-4.3 c0-1.9,0.5-3.4,1.4-4.4C204.8,21.5,206.1,21,207.7,21z M197.4,18.4c0.7,1.6,1.1,3.4,1.1,5.6s-0.4,4-1.1,5.6 c-0.7,1.6-1.8,2.8-3.2,3.6c-1.4,0.8-3,1.3-4.9,1.3c-1.9,0-3.5-0.4-4.9-1.3c-1.4-0.8-2.5-2.1-3.2-3.6c-0.7-1.6-1.1-3.4-1.1-5.6 c0-2.2,0.4-4,1.1-5.6c0.7-1.6,1.8-2.8,3.2-3.6c1.4-0.8,3-1.3,4.9-1.3c1.9,0,3.6,0.4,5,1.3S196.6,16.8,197.4,18.4z M196.6,23.9 c0-2.8-0.6-5-1.9-6.6c-1.3-1.5-3.1-2.3-5.4-2.3c-2.3,0-4.1,0.8-5.4,2.3c-1.3,1.5-1.9,3.7-1.9,6.6c0,2.8,0.6,5,1.9,6.6 c1.3,1.6,3.1,2.4,5.4,2.4s4.1-0.8,5.4-2.3C196,29,196.6,26.8,196.6,23.9z M258.9,26.8L258.9,26.8c0,2,0.5,3.5,1.4,4.5 c0.9,1,2.2,1.5,3.9,1.5c1.7,0,3.3-0.6,4.8-1.8l0.7,1.4c-0.6,0.6-1.5,1.1-2.4,1.4c-1,0.4-2,0.5-3.1,0.5c-2.2,0-4-0.7-5.2-2 c-1.3-1.3-1.9-3.2-1.9-5.5c0-1.5,0.3-2.8,0.9-3.9c0.6-1.1,1.4-2,2.4-2.7c1-0.6,2.2-0.9,3.6-0.9c1.9,0,3.4,0.6,4.5,1.8 c1.1,1.2,1.6,2.9,1.6,5.1v0.4H258.9z M259.1,25.4h9.3c-0.1-1.5-0.6-2.6-1.3-3.4c-0.8-0.8-1.8-1.2-3.1-1.2c-1.3,0-2.4,0.4-3.3,1.2 C259.8,22.9,259.3,24,259.1,25.4z M236.3,19.8h1.8v14.5h-1.8v-2.8c-0.4,1-1.1,1.7-1.9,2.2c-0.9,0.5-1.9,0.8-3.1,0.8 c-1.3,0-2.4-0.3-3.4-0.9c-1-0.6-1.7-1.5-2.3-2.6c-0.5-1.1-0.8-2.4-0.8-3.9c0-1.5,0.3-2.8,0.8-4c0.5-1.1,1.3-2,2.3-2.7 c1-0.6,2.1-0.9,3.4-0.9c1.2,0,2.2,0.3,3.1,0.8c0.9,0.5,1.5,1.2,2,2.2V19.8z M236.3,26.9c0-1.9-0.4-3.4-1.3-4.4c-0.8-1-2-1.6-3.6-1.6 c-1.5,0-2.7,0.5-3.6,1.6c-0.9,1.1-1.3,2.5-1.3,4.4c0,1.9,0.4,3.3,1.3,4.3c0.9,1,2.1,1.5,3.6,1.5c1.5,0,2.7-0.5,3.5-1.6 C235.9,30.3,236.3,28.8,236.3,26.9z M249.1,19.4c-1.2,0-2.2,0.3-3.1,0.8c-0.9,0.5-1.6,1.3-2,2.2l-0.2-2.7h-1.7 c0.2,1.2,0.2,2.5,0.2,4v10.4h1.7v-8.4c0-1.5,0.4-2.7,1.3-3.6c0.9-0.9,2.1-1.3,3.5-1.3c1.3,0,2.2,0.3,2.8,1c0.6,0.7,0.9,1.7,0.9,3.2 v9.1h1.8V25C254.4,21.3,252.6,19.4,249.1,19.4z"/>
</svg>
