<svg xmlns="http://www.w3.org/2000/svg" width="337" height="63" viewBox="0 0 273 51"><style>.st0{fill:#fff}.st3{fill:#2e2e2e}</style><path class="st0" d="M163.6 12.5v11c-1.6-2.7-4.6-4.5-8.1-4.5h-.2c-2.2 0-4.2.7-5.9 1.8l.6-1.5h-8.5l-2.4 6.4-2.2-6.4h-13.3v.1c-.9-.3-1.9-.4-2.9-.4-2.4 0-4.6 1-6.2 2.5v-2.7l-2.1.1c-.9 0-1.7.2-2.4.5v-.1H94.8v.1c-.9-.3-1.9-.4-2.9-.4-5.1 0-9.3 4.4-9.3 9.8 0 .5 0 .9.1 1.4h-5.1V13.4h-8.1v24.7h16.1V36c1.7 1.6 3.9 2.6 6.3 2.6 1.1 0 2.1-.2 3-.5H110V29c0-.5 0-1.6 1.5-1.8-.1.5-.1 1-.1 1.6 0 5.4 4.2 9.8 9.3 9.8 1.1 0 2.1-.2 3-.5h7.8V27.3l4.1 10.7h7.1l2.8-7.3c.9 4.6 4.8 7.8 10 7.8 3.3 0 6.2-1.4 8-3.9V38h7.9V12.5h-7.8zm-71 18.4c-1.3 0-2.1-.9-2.1-2.2 0-1.4.8-2.2 2.1-2.2s2.2.9 2.2 2.2c0 1.4-.9 2.2-2.2 2.2zm28.8 0c-1.3 0-2.1-.9-2.1-2.2 0-1.4.8-2.2 2.1-2.2s2.2.9 2.2 2.2-.9 2.2-2.2 2.2zM26 50.9c-1.4 0-2.8-.2-4.2-.7l-10.1-3.9c-2.7-1-5.1-3.2-6.3-6L1 30.5c-1.2-2.7-1.3-5.8-.2-8.7l3.8-10c1.2-3 3.3-5.2 6.1-6.4L20.4 1c1.4-.6 2.9-1 4.6-1 1.4 0 2.8.2 4.2.7l10.1 3.8c2.8 1 5.1 3.2 6.3 6l4.4 9.8c1.2 2.7 1.3 5.8.2 8.7l-3.9 10.1c-1 2.7-3.2 5.1-6 6.3l-9.8 4.4c-1.4.8-2.9 1.1-4.5 1.1z"/><path d="m6 12.3-3.8 10c-.9 2.5-.9 5.2.2 7.6l4.4 9.8c1.1 2.4 3.1 4.3 5.5 5.2l10.1 3.9c2.5.9 5.2.9 7.6-.2l9.8-4.4c2.4-1.1 4.3-3.1 5.2-5.5l3.9-10.1c.9-2.5.9-5.2-.2-7.6l-4.4-9.8c-1.1-2.4-3.1-4.3-5.5-5.2L28.7 2.2c-2.5-.9-5.2-.9-7.6.2l-9.8 4.3C8.8 7.8 7 9.8 6 12.3z" fill="#dc2626"/><path d="M7 16.8 34.1 7 44 34.1 16.9 44 7 16.8z" fill="#991b1b"/><path class="st0" d="m8.8 13.8 28.4-5 5 28.4-28.4 5-5-28.4zM232.8 37.5c-1.6 0-2.9-.4-4.2-1.1-1.1-.7-2-1.7-2.8-3.2 0 0-.1-.1-.1-.2v3.7l-1 .3c-.8.3-1.7.3-2.4.3-1.6 0-3.1-.5-4.1-1.5-1-1-1.5-2.5-1.5-4.3v-7.4h-1.5l-1.1 2.3-1.4-1.1c-.7-.5-1.4-.9-2-1.2-.3-.2-.8-.2-1.4-.2-1.1 0-2 .3-2.4.9l-.1.1-.1.1c-.7.7-1 1.9-1 3.4 0 1.4.4 2.6 1 3.3.6.8 1.4 1.1 2.6 1.1.6 0 1.1-.1 1.5-.3.6-.3 1.2-.6 1.9-1.1l1.4-1.1 2 4-.8.8c-.8.8-1.8 1.4-2.9 1.8-1.2.4-2.2.6-3.3.6-1.7 0-3.1-.4-4.4-1.1-1.2-.7-2.2-1.8-2.9-3.2v-.1c-.5-1-.8-2.1-.9-3.3-.2.7-.4 1.3-.7 2-.8 1.9-2.1 3.3-3.8 4.3-1.8 1-3.6 1.5-5.6 1.5-2.2 0-4.1-.5-5.7-1.5-1.5-.9-2.9-2.4-3.7-4.2-.8-1.9-1.2-3.9-1.2-6.2s.4-4.3 1.2-6.2c.8-1.9 2.1-3.3 3.8-4.3 1.8-1 3.6-1.5 5.6-1.5 2.3 0 4.2.5 5.8 1.5 1.6 1 2.7 2.3 3.6 4.2.8 1.7 1.2 3.5 1.2 5.4.1-.3.2-.6.4-.8.6-1.4 1.6-2.5 3-3.3 1.2-.7 2.7-1.1 4.4-1.1 1.1 0 2.1.2 3.3.6.5.2.9.4 1.3.6V20h2.9v-3.3l4.8-1.9V20h4.2v4c.6-1.4 1.6-2.5 2.8-3.4l.1-.1c1.2-.7 2.6-1.1 4.2-1.1 1.3 0 2.5.3 3.6.9v-.6h4.7v17.5h-4.8v-.6c-1.2.6-2.3.9-3.5.9zm-11.4-6.2c0 1 .2 1.3.2 1.3l.1.1c.1.1.4.3.9.3.3 0 .8-.1 1-.2l1.7-.7c-.3-1.1-.5-2.2-.5-3.4 0-1.5.3-3 .8-4.4h-4.2v7zM190.8 18c-1.8 0-3.2.6-4.3 1.8-1 1.2-1.5 3-1.5 5.6 0 2.5.5 4.4 1.6 5.7 1 1.2 2.4 1.8 4.2 1.8 1.8 0 3.2-.6 4.3-1.8 1-1.3 1.5-3.1 1.5-5.7 0-2.5-.5-4.4-1.6-5.7-1-1.2-2.4-1.7-4.2-1.7zm42.1 5.9c-1.1 0-1.8.3-2.4 1.1-.7.8-1 1.9-1 3.5s.3 2.6.9 3.3c.6.7 1.4 1 2.5 1 1.4 0 2-.6 2.3-1l.1-.2.2-.1c.5-.4.8-1.5.8-3 0-1.6-.3-2.7-.9-3.4-.7-.9-1.5-1.2-2.5-1.2zm32.8 13.4c-2.6 0-4.8-.9-6.3-2.5-1.1-1.1-1.8-2.5-2.1-4.2v6.5h-4.8V26.5c0-1.1-.2-1.8-.5-2.2-.1-.1-.4-.5-1.7-.5-1.1 0-1.9.3-2.4.9-.6.6-.9 1.4-.9 2.5v9.9h-4.7V25.2c0-1.4 0-2.7-.2-3.8l-.3-1.7h4.9l.1.7c1.2-.7 2.5-1 3.8-1 2.1 0 3.8.6 5 1.8 1.1 1.2 1.7 2.8 1.7 4.9.2-.9.5-1.7.9-2.5.7-1.3 1.7-2.4 2.9-3.2l.1-.1c1.2-.7 2.7-1.1 4.4-1.1 2.3 0 4.2.8 5.6 2.3 1.3 1.5 2 3.5 2 6.1v1.9h-11.1c.1.9.5 1.7.9 2.2.6.7 1.5 1 2.8 1 1.4 0 2.6-.5 3.9-1.5l1.4-1.2 2 4-.8.8c-.7.7-1.8 1.4-3 1.8-1.3.6-2.6.7-3.6.7zm2.3-11.9c-.1-.3-.3-.6-.6-.9-.5-.5-1.1-.7-2-.7-.9 0-1.7.3-2.3.8-.2.2-.4.5-.6.8h5.5z"/><path class="st3" d="M219.9 21.3h4.3v1.4h-4.3v8.6c0 1.2.2 2 .7 2.4.4.4 1.1.7 2 .7.5 0 1.1-.1 1.6-.3v1.6c-.6.2-1.3.2-1.9.2-1.3 0-2.3-.4-3-1.1-.7-.7-1.1-1.8-1.1-3.2v-8.9h-2.9v-1.4h2.9v-3.8l1.8-.7v4.5h-.1zm-10.7 1.2c.7 0 1.5.1 2.1.4s1.4.7 2.2 1.3l.7-1.4c-.6-.6-1.3-1.1-2.2-1.4s-1.8-.5-2.8-.5c-1.4 0-2.6.3-3.6.9s-1.9 1.5-2.4 2.7c-.6 1.1-.8 2.5-.8 4s.3 2.8.8 3.9c.6 1.1 1.4 2 2.4 2.6s2.2.9 3.6.9c1 0 1.9-.2 2.8-.5.9-.3 1.7-.8 2.3-1.4l-.7-1.4c-.8.6-1.5 1-2.2 1.3-.7.3-1.4.4-2.1.4-1.6 0-2.8-.5-3.7-1.6-.9-1-1.4-2.5-1.4-4.3 0-1.9.5-3.4 1.4-4.4.7-1 2-1.5 3.6-1.5zm-10.3-2.6c.7 1.6 1.1 3.4 1.1 5.6s-.4 4-1.1 5.6c-.7 1.6-1.8 2.8-3.2 3.6s-3 1.3-4.9 1.3-3.5-.4-4.9-1.3c-1.4-.8-2.5-2.1-3.2-3.6-.7-1.6-1.1-3.4-1.1-5.6s.4-4 1.1-5.6c.7-1.6 1.8-2.8 3.2-3.6 1.4-.8 3-1.3 4.9-1.3s3.6.4 5 1.3 2.3 2 3.1 3.6zm-.8 5.5c0-2.8-.6-5-1.9-6.6-1.3-1.5-3.1-2.3-5.4-2.3-2.3 0-4.1.8-5.4 2.3-1.3 1.5-1.9 3.7-1.9 6.6 0 2.8.6 5 1.9 6.6 1.3 1.6 3.1 2.4 5.4 2.4s4.1-.8 5.4-2.3c1.3-1.6 1.9-3.8 1.9-6.7zm62.3 2.9c0 2 .5 3.5 1.4 4.5s2.2 1.5 3.9 1.5c1.7 0 3.3-.6 4.8-1.8l.7 1.4c-.6.6-1.5 1.1-2.4 1.4-1 .4-2 .5-3.1.5-2.2 0-4-.7-5.2-2-1.3-1.3-1.9-3.2-1.9-5.5 0-1.5.3-2.8.9-3.9s1.4-2 2.4-2.7c1-.6 2.2-.9 3.6-.9 1.9 0 3.4.6 4.5 1.8 1.1 1.2 1.6 2.9 1.6 5.1v.4h-11.2v.2zm.2-1.4h9.3c-.1-1.5-.6-2.6-1.3-3.4-.8-.8-1.8-1.2-3.1-1.2s-2.4.4-3.3 1.2c-.9.9-1.4 2-1.6 3.4zm-22.8-5.6h1.8v14.5h-1.8V33c-.4 1-1.1 1.7-1.9 2.2-.9.5-1.9.8-3.1.8-1.3 0-2.4-.3-3.4-.9-1-.6-1.7-1.5-2.3-2.6-.5-1.1-.8-2.4-.8-3.9s.3-2.8.8-4c.5-1.1 1.3-2 2.3-2.7 1-.6 2.1-.9 3.4-.9 1.2 0 2.2.3 3.1.8.9.5 1.5 1.2 2 2.2v-2.7h-.1zm0 7.1c0-1.9-.4-3.4-1.3-4.4-.8-1-2-1.6-3.6-1.6-1.5 0-2.7.5-3.6 1.6-.9 1.1-1.3 2.5-1.3 4.4s.4 3.3 1.3 4.3 2.1 1.5 3.6 1.5 2.7-.5 3.5-1.6c1-.8 1.4-2.3 1.4-4.2zm12.8-7.5c-1.2 0-2.2.3-3.1.8-.9.5-1.6 1.3-2 2.2l-.2-2.7h-1.7c.2 1.2.2 2.5.2 4v10.4h1.7v-8.4c0-1.5.4-2.7 1.3-3.6.9-.9 2.1-1.3 3.5-1.3 1.3 0 2.2.3 2.8 1s.9 1.7.9 3.2v9.1h1.8v-9.1c.1-3.7-1.7-5.6-5.2-5.6zM75.6 32.2h8v3.9H71.5V15.4h4.1zM96.8 21.3v1.9c-1.1-1.4-2.7-2.2-4.9-2.2-4 0-7.3 3.4-7.3 7.8s3.3 7.8 7.3 7.8c2.2 0 3.8-.9 4.9-2.2v1.7h3.9V21.3h-3.9zm-4.2 11.6c-2.3 0-4.1-1.7-4.1-4.2s1.7-4.2 4.1-4.2c2.4 0 4.2 1.7 4.2 4.2s-1.7 4.2-4.2 4.2zM108 23.8v-2.5h-3.9v14.8h3.9V29c0-3.1 2.5-4 4.5-3.8v-4.3c-1.8.1-3.7.9-4.5 2.9zM125.6 21.3v1.9c-1.1-1.4-2.7-2.2-4.9-2.2-4 0-7.3 3.4-7.3 7.8s3.3 7.8 7.3 7.8c2.2 0 3.8-.9 4.9-2.2v1.7h3.9V21.3h-3.9zm-4.2 11.6c-2.3 0-4.1-1.7-4.1-4.2s1.7-4.2 4.1-4.2c2.4 0 4.2 1.7 4.2 4.2s-1.8 4.2-4.2 4.2zM139.1 31.7l-3.6-10.4h-4.2l5.7 14.8h4.4l5.7-14.8h-4.2l-3.8 10.4zM163 28.7c0-4.4-3.2-7.8-7.7-7.7-4.7 0-7.9 3.4-7.9 7.8s3.2 7.8 8.2 7.8c2.9 0 5.1-1.2 6.5-3.2l-3.1-1.8c-.6.9-1.8 1.5-3.3 1.5-2 0-3.7-.8-4.2-2.8h11.4c0-.5.1-1 .1-1.6zm-11.5-1.4c.4-1.9 1.8-3 3.9-3 1.6 0 3.2.9 3.7 3h-7.6zM165.6 14.5h3.9v21.6h-3.9z"/></svg>